# xmcd
#
# Track frame offsets: 
#        150
#        19619
#        33295
#        50614
#        75859
#        93240
#        106687
#        124802
#        139958
#        159821
#        174488
#        190012
#        204989
#
# Disc length: 2950 seconds
#
# Revision: 1
# Processed by: cddbd v1.5.2PL0 Copyright (c) Steve Scherf et al.
# Submitted via: ExactAudioCopy v1.0b3
#
DISCID=920b840d
DTITLE=Morrison, Van - Perugia 2003.07.15 (1v2)
DYEAR=2003
DGENRE=R&B
TTITLE0=Whining Boy Moan
TTITLE1=Days Like This
TTITLE2=Cleaning Windows
TTITLE3=Moondance
TTITLE4=Meet Me in the Indian Summer
TTITLE5=Don't Worry About a Thing
TTITLE6=Have I Told You Lately
TTITLE7=Here Comes the Night
TTITLE8=How Long Has This Been Going On?
TTITLE9=Sack O'Woe
TTITLE10=Centerpiece
TTITLE11=One Of These Days
TTITLE12=Precious Time
EXTD=A Soft Warewolf Production - NEVER FOR SALE!
EXTT0=
EXTT1=
EXTT2=
EXTT3=
EXTT4=
EXTT5=
EXTT6=
EXTT7=
EXTT8=
EXTT9=
EXTT10=
EXTT11=
EXTT12=
PLAYORDER=
